<svg version="1.1" id="Layer_1" xmlns="http://www.w3.org/2000/svg" xmlns:xlink="http://www.w3.org/1999/xlink" x="0px" y="0px"
	 width="100%" viewBox="0 0 500 500" enable-background="new 0 0 500 500" xml:space="preserve">
<path fill="#000000" opacity="1.000000" stroke="none" 
	d="
M292.000000,501.000000 
	C194.666687,501.000000 97.833382,501.000000 1.000052,501.000000 
	C1.000035,334.333405 1.000035,167.666794 1.000017,1.000141 
	C167.666565,1.000094 334.333130,1.000094 500.999756,1.000047 
	C500.999847,167.666519 500.999847,334.333038 500.999939,500.999786 
	C431.500000,501.000000 362.000000,501.000000 292.000000,501.000000 
M301.517120,210.948593 
	C301.706848,210.652618 301.896576,210.356659 302.726593,209.786789 
	C308.785156,203.358826 314.916718,196.997757 320.885895,190.487823 
	C330.837311,179.634857 340.684784,168.686554 351.095825,157.341522 
	C354.435272,153.591644 357.774689,149.841766 361.818787,146.156647 
	C367.990265,149.222565 374.161713,152.288483 379.301453,154.841843 
	C376.498535,163.269302 373.898224,171.087585 371.300659,178.897552 
	C376.976990,181.263870 382.823792,180.700439 384.772980,177.694489 
	C386.820557,174.536682 388.781006,171.322372 390.932159,168.524521 
	C391.073486,168.816910 391.305115,168.942230 392.111115,169.697556 
	C398.683197,169.697556 405.255249,169.697556 412.472412,169.697556 
	C411.943054,167.603119 411.458435,165.685654 410.988800,162.971603 
	C410.696320,155.791885 408.252594,152.295471 401.647522,149.525955 
	C396.446564,149.003754 391.253479,148.216583 386.041626,148.062256 
	C383.083405,147.974670 381.433258,147.016541 380.403534,144.321442 
	C378.719757,139.914536 376.845856,135.580307 375.665009,130.858612 
	C376.610138,130.248627 377.753357,129.813354 378.469635,129.001450 
	C385.237762,121.330139 391.782288,113.456497 398.688446,105.913261 
	C407.028748,96.803558 415.657867,87.958244 424.774841,78.696396 
	C426.378052,74.371719 422.728210,76.095032 421.392273,76.084671 
	C404.894379,75.956627 388.395050,75.977364 371.896454,76.044266 
	C370.534729,76.049782 369.175507,76.669968 367.404022,77.066185 
	C367.125519,77.216019 367.002502,77.448235 366.468231,78.069008 
	C365.917084,78.714340 365.365936,79.359680 364.386658,80.079491 
	C364.104248,80.244057 363.977020,80.489166 363.481232,81.085617 
	C363.355560,81.619148 363.229889,82.152687 362.493408,83.034256 
	C351.868469,94.391472 341.243530,105.748688 329.934814,117.401299 
	C324.157715,117.311760 319.428162,119.727097 315.358307,123.924248 
	C313.913666,116.749619 310.626312,113.914543 303.599426,114.139915 
	C302.362488,114.179596 300.216339,116.067551 300.132629,117.221115 
	C299.250946,129.372818 298.703033,141.548737 297.355835,153.971405 
	C295.965088,154.767365 294.272125,155.283813 293.234192,156.406097 
	C287.780426,162.303009 282.593231,168.447083 277.121429,174.326599 
	C270.032288,181.943954 262.718170,189.351425 255.585632,196.929047 
	C250.969009,201.833740 246.503998,206.881134 241.318573,212.170105 
	C241.013550,213.049973 240.708527,213.929840 240.340149,214.992447 
	C259.058167,214.992447 277.550385,215.002594 296.042450,214.952698 
	C296.731140,214.950851 297.418213,214.364304 298.036438,214.044144 
	C298.036438,214.044144 298.042114,214.113800 298.630676,213.873749 
	C299.455200,212.930603 300.279724,211.987457 301.025757,211.007614 
	C301.025757,211.007614 300.989655,211.086349 301.517120,210.948593 
M456.091034,139.983521 
	C456.091034,139.983521 456.178741,139.937271 456.082764,139.065125 
	C455.722382,132.475708 455.482971,125.875648 454.905945,119.305267 
	C454.781219,117.885063 453.720154,115.714752 452.614136,115.355255 
	C447.462921,113.680977 442.144592,112.520973 436.404846,111.155876 
	C436.074158,111.360138 435.982269,111.642303 435.949890,112.333839 
	C435.949890,112.333839 435.992157,112.708305 435.405548,112.991493 
	C435.600739,113.425987 435.795929,113.860489 435.946045,114.659172 
	C435.946045,114.659172 436.122070,114.981186 436.038727,115.924400 
	C436.079407,128.593613 436.120087,141.262833 436.041992,154.786621 
	C436.100922,158.970963 436.040375,163.163086 436.312164,167.333557 
	C436.371857,168.249161 437.571167,169.793777 438.318298,169.838608 
	C441.423248,170.024872 444.748749,170.314896 447.579865,169.351624 
	C448.653778,168.986252 448.595245,165.339142 449.092834,163.197113 
	C449.201752,162.728333 449.502838,162.307510 449.678619,161.850464 
	C451.820801,156.280960 453.956024,150.708832 456.614716,144.856644 
	C456.795258,143.895523 456.975800,142.934387 457.011139,141.352539 
	C456.687195,140.868011 456.363251,140.383484 456.091034,139.983521 
M432.119293,159.161331 
	C431.497070,152.121338 430.874847,145.081345 430.000305,137.128830 
	C429.999725,129.970367 429.821045,122.805702 430.070190,115.655937 
	C430.204193,111.811378 428.631561,110.190575 425.120697,111.057175 
	C420.917572,112.094650 416.861084,113.717201 412.721497,115.024239 
	C409.771942,115.955536 408.846375,117.808975 408.883209,120.933815 
	C408.937164,125.509018 407.794617,130.125900 408.096405,134.662857 
	C408.398102,139.198013 405.897491,144.249771 409.968353,148.969131 
	C411.968353,152.020325 413.968353,155.071533 415.954041,158.949799 
	C416.790253,162.517181 416.519562,167.772903 418.740112,169.228699 
	C421.577606,171.088928 426.424927,169.885880 430.406250,169.995911 
	C430.905090,170.009689 431.622498,170.187302 431.864960,169.932892 
	C432.680847,169.076813 433.987946,168.003296 433.911926,167.115311 
	C433.708557,164.740250 432.884033,162.418381 432.119293,159.161331 
M81.598495,201.872391 
	C78.733818,205.178436 75.869148,208.484467 72.380257,212.113052 
	C70.828552,215.045959 70.820442,215.227631 73.471428,215.346024 
	C75.974739,215.457809 78.497314,215.023346 81.011887,215.016968 
	C95.509628,214.980118 110.007645,215.026566 124.505157,214.958206 
	C126.031052,214.951004 127.554276,214.378494 129.725266,213.788635 
	C140.070297,202.864639 150.415314,191.940628 161.426254,181.245728 
	C165.872055,186.746872 172.405319,188.085724 178.708130,188.684479 
	C183.921432,189.179718 189.992340,189.083481 193.542816,184.053986 
	C197.246765,178.807053 194.648560,173.479797 192.031952,168.656403 
	C190.508652,165.848404 188.113495,163.513397 185.668549,160.403214 
	C189.024872,158.767731 191.907440,157.363098 194.790024,155.958481 
	C194.718033,156.555527 194.646057,157.152557 194.574066,157.749603 
	C198.799973,159.135925 203.186264,161.954147 207.206421,161.503815 
	C211.186493,161.057983 214.797180,157.314743 218.602234,154.998138 
	C221.394333,158.973663 217.962646,165.829880 225.528305,168.704590 
	C232.757050,171.451294 236.280121,167.874237 239.222824,163.743607 
	C241.758713,167.108276 243.406021,170.642227 246.160400,172.679169 
	C252.708969,177.522049 263.106598,177.420059 266.789764,172.591156 
	C272.588562,164.988495 276.284393,156.275421 278.896820,146.892899 
	C274.832489,144.838745 272.778229,146.539169 271.313416,149.875549 
	C269.475922,154.060883 267.856750,158.383911 265.576355,162.318909 
	C263.928375,165.162689 261.356201,167.470917 259.196198,170.017990 
	C258.750366,169.871994 258.304535,169.725983 257.858734,169.579971 
	C257.601044,168.084290 257.085602,166.580841 257.130249,165.094238 
	C257.324707,158.623642 257.494598,152.142502 258.025513,145.694183 
	C258.774750,136.594925 254.626144,134.551743 246.042236,136.134644 
	C244.858307,136.352966 243.120697,138.319061 243.123276,139.472672 
	C243.144653,149.015213 236.574570,155.031662 231.667816,162.080994 
	C231.079788,160.159866 230.996155,158.398346 231.095474,156.647217 
	C231.394302,151.378265 231.867691,146.117493 232.080154,140.845764 
	C232.338028,134.447403 229.675308,129.740738 222.494766,127.769493 
	C219.095627,126.836342 215.570496,126.362190 212.394882,125.130829 
	C214.528839,122.655693 216.571060,120.093964 218.812042,117.719864 
	C230.845871,104.971138 242.936310,92.275833 254.970047,79.527031 
	C255.462952,79.004829 255.583893,78.131538 256.553894,76.918076 
	C255.809784,76.612473 255.066452,76.042198 254.321472,76.040070 
	C236.843140,75.989967 219.364609,75.985435 201.886322,76.042160 
	C200.883347,76.045410 199.882324,76.640388 198.269150,77.216827 
	C195.101669,80.380264 191.849625,83.464035 188.781204,86.720825 
	C174.905258,101.448647 161.081238,116.225403 146.567398,130.722244 
	C139.469543,125.830605 130.407104,124.632378 125.816925,128.993484 
	C118.732597,135.724274 112.928055,143.451599 112.900253,154.720230 
	C110.446617,157.829147 107.992989,160.938080 105.539352,164.046997 
	C105.023216,163.759628 104.507080,163.472275 103.990944,163.184906 
	C103.990944,160.061325 104.124382,156.930405 103.953537,153.816193 
	C103.781639,150.682709 103.366829,147.557892 102.953552,144.443222 
	C101.869644,136.274124 96.879906,132.537186 87.610054,133.457230 
	C88.155350,137.310883 88.697083,141.139374 89.219269,144.829727 
	C91.427483,144.542023 93.303741,144.297577 96.688782,143.856552 
	C94.077316,147.660065 92.276108,150.283478 89.953056,153.666931 
	C89.154068,151.063171 88.745438,149.731537 88.391747,148.578934 
	C81.687515,153.349869 75.214920,157.955978 68.404060,162.802780 
	C67.214012,160.683029 66.545738,159.757095 66.140572,158.727585 
	C63.720001,152.577087 64.560371,150.947052 70.698349,149.209106 
	C72.604767,148.669296 74.529167,147.994217 76.249084,147.030746 
	C82.069954,143.770035 82.695297,136.185211 77.582115,132.082428 
	C69.277962,125.419235 55.136055,129.005157 51.481224,138.953873 
	C50.136097,142.615387 49.553280,146.620071 49.102703,150.523636 
	C48.828526,152.898941 48.821651,155.692078 49.814953,157.759232 
	C53.944664,166.353546 71.748947,170.159180 79.300125,164.315613 
	C81.906372,162.298752 84.495354,160.259598 88.008621,157.514633 
	C88.008621,160.984055 87.720970,163.169617 88.067009,165.249756 
	C88.846924,169.938065 85.962608,171.830414 82.545738,173.895264 
	C78.726257,176.203445 74.656982,178.586609 71.794945,181.889145 
	C65.836510,188.764664 68.583061,197.144318 77.142258,199.899780 
	C78.721962,200.408325 80.324600,200.845673 81.598495,201.872391 
M490.225647,127.256989 
	C486.420197,131.496689 482.614716,135.736389 478.258301,139.584885 
	C474.388306,131.557465 469.359100,124.648621 460.015564,120.335014 
	C460.015564,127.199196 460.204193,133.107162 459.955566,138.996674 
	C459.758453,143.666061 462.102936,145.042755 466.238770,145.145859 
	C468.124695,145.192886 469.995300,145.856415 471.754425,146.745895 
	C471.410980,147.132141 471.067535,147.518402 469.912628,147.860947 
	C467.635681,148.207748 465.352478,148.518417 463.083038,148.908783 
	C458.109009,149.764328 455.587250,152.647385 454.892609,157.802963 
	C454.480865,160.858963 453.734039,163.869797 452.444031,167.064240 
	C444.971497,175.199600 437.539764,183.372940 430.013428,191.458252 
	C424.039520,197.875809 417.934998,204.171692 411.938568,210.568588 
	C411.442535,211.097763 411.330566,211.987000 410.385925,213.053665 
	C410.550079,213.700394 410.695221,214.904785 410.881195,214.911133 
	C414.260712,215.026260 417.645111,215.007172 421.028442,214.997299 
	C438.020966,214.947739 455.013458,214.892563 472.806335,214.978577 
	C483.431793,214.352448 493.617096,203.961060 492.993530,193.110733 
	C492.993530,170.529800 492.993530,147.948883 492.993530,124.343849 
	C491.789032,125.815727 491.307007,126.404732 490.225647,127.256989 
M22.256611,76.264603 
	C18.774227,77.841354 14.662964,78.722679 11.962815,81.164436 
	C8.284870,84.490433 4.137557,88.091507 3.995331,94.729706 
	C3.997858,97.943718 4.002456,101.157730 4.002572,104.371742 
	C4.003263,123.476616 3.998520,142.581482 4.012535,161.686356 
	C4.013499,162.999924 4.152009,164.313385 4.270816,166.406860 
	C5.274504,165.105652 5.670459,164.592316 6.688082,163.819946 
	C12.408333,157.866760 18.128584,151.913589 24.478832,146.499237 
	C24.655584,152.677582 24.833111,158.855911 25.008888,165.034271 
	C25.210238,172.111465 27.883005,174.748520 35.021797,175.059570 
	C38.128418,175.194916 40.050724,174.462921 40.103504,170.736588 
	C40.273857,158.710297 41.211384,146.670746 40.838890,134.667786 
	C40.476727,122.997887 44.733276,118.892586 55.873768,118.952072 
	C56.108929,118.953331 56.346027,118.591873 56.840851,118.189095 
	C55.904396,116.728882 54.957191,115.251900 54.335316,113.176811 
	C55.536156,111.981224 56.778515,110.824226 57.931187,109.583878 
	C66.316940,100.560158 74.707169,91.540337 83.032463,82.461029 
	C84.210960,81.175797 85.045357,79.575020 86.789925,77.748627 
	C85.960266,77.166367 85.131607,76.077614 84.300797,76.075958 
	C63.865665,76.035202 43.430305,76.109756 22.256611,76.264603 
M383.045532,140.898346 
	C383.996735,141.610947 384.889435,142.831924 385.909119,142.949219 
	C390.638702,143.493195 395.407074,143.990433 400.153534,143.924484 
	C401.627197,143.904022 404.277405,142.126938 404.339508,141.037308 
	C404.727753,134.224319 404.535522,127.378258 404.535522,119.723915 
	C401.483246,121.350662 398.717651,122.071281 397.082123,123.838028 
	C392.251434,129.056335 387.867676,134.688339 383.045532,140.898346 
M246.751678,119.413040 
	C246.503189,121.693726 245.754730,124.071533 246.172623,126.222771 
	C246.478394,127.796776 248.148727,130.051331 249.506607,130.285172 
	C252.663925,130.828949 256.924988,133.998245 258.990234,130.002151 
	C260.509918,127.061707 260.306976,122.648964 259.441345,119.257317 
	C258.839508,116.899208 249.368225,116.803131 246.751678,119.413040 
M96.520065,130.649826 
	C100.036552,130.446075 102.158508,128.879837 101.924026,125.062500 
	C101.692619,121.295570 97.601189,117.927582 93.155159,117.670967 
	C89.311493,117.449120 89.109650,120.409340 88.497696,122.912216 
	C87.447449,127.207764 90.030144,129.802902 96.520065,130.649826 
z"/>
<path fill="#1A414B" opacity="1.000000" stroke="none" 
	d="
M112.987289,154.004578 
	C112.928055,143.451599 118.732597,135.724274 125.816925,128.993484 
	C130.407104,124.632378 139.469543,125.830605 146.943405,131.211517 
	C151.419678,135.520477 150.375778,140.449554 150.150131,145.160278 
	C149.885574,150.682892 149.470093,156.198257 149.086761,162.242065 
	C155.201508,158.425186 160.094498,149.030441 160.128799,143.228928 
	C160.147873,140.002457 160.472290,136.435974 161.867844,133.622238 
	C166.418076,124.447922 182.229950,122.614731 189.284698,130.335220 
	C190.332565,131.481964 190.088058,133.809631 190.441452,135.590958 
	C188.513779,135.272827 186.079727,135.586838 184.750305,134.521896 
	C180.175674,130.857422 180.091766,130.671753 177.352234,135.805740 
	C176.504608,137.394196 175.885284,139.150360 175.445999,140.901138 
	C174.567307,144.403198 177.547211,153.675232 180.535645,153.984894 
	C183.543579,154.296555 186.935837,151.950958 189.970779,150.400040 
	C191.086807,149.829742 191.559189,148.108200 192.501511,147.072205 
	C199.009079,139.917770 205.563248,132.805740 212.102448,125.680084 
	C215.570496,126.362190 219.095627,126.836342 222.494766,127.769493 
	C229.675308,129.740738 232.338028,134.447403 232.080154,140.845764 
	C231.867691,146.117493 231.394302,151.378265 231.095474,156.647217 
	C230.996155,158.398346 231.079788,160.159866 231.667816,162.080994 
	C236.574570,155.031662 243.144653,149.015213 243.123276,139.472672 
	C243.120697,138.319061 244.858307,136.352966 246.042236,136.134644 
	C254.626144,134.551743 258.774750,136.594925 258.025513,145.694183 
	C257.494598,152.142502 257.324707,158.623642 257.130249,165.094238 
	C257.085602,166.580841 257.601044,168.084290 257.858734,169.579971 
	C258.304535,169.725983 258.750366,169.871994 259.196198,170.017990 
	C261.356201,167.470917 263.928375,165.162689 265.576355,162.318909 
	C267.856750,158.383911 269.475922,154.060883 271.313416,149.875549 
	C272.778229,146.539169 274.832489,144.838745 278.896820,146.892899 
	C276.284393,156.275421 272.588562,164.988495 266.789764,172.591156 
	C263.106598,177.420059 252.708969,177.522049 246.160400,172.679169 
	C243.406021,170.642227 241.758713,167.108276 239.222824,163.743607 
	C236.280121,167.874237 232.757050,171.451294 225.528305,168.704590 
	C217.962646,165.829880 221.394333,158.973663 218.602234,154.998138 
	C214.797180,157.314743 211.186493,161.057983 207.206421,161.503815 
	C203.186264,161.954147 198.799973,159.135925 194.574066,157.749603 
	C194.646057,157.152557 194.718033,156.555527 194.790024,155.958481 
	C191.907440,157.363098 189.024872,158.767731 185.668549,160.403214 
	C188.113495,163.513397 190.508652,165.848404 192.031952,168.656403 
	C194.648560,173.479797 197.246765,178.807053 193.542816,184.053986 
	C189.992340,189.083481 183.921432,189.179718 178.708130,188.684479 
	C172.405319,188.085724 165.872055,186.746872 161.170486,180.768723 
	C159.034317,171.261963 165.962067,166.686264 170.916656,161.274384 
	C168.466476,158.028534 166.247208,155.088577 163.790039,151.833450 
	C161.420074,156.045212 159.432541,159.661987 157.363800,163.231674 
	C154.940994,167.412292 151.818802,170.255890 146.451157,168.893860 
	C141.443939,167.623276 138.570114,163.942734 137.982971,157.893906 
	C137.817108,156.185120 137.513245,154.489746 137.038483,151.131943 
	C133.324783,159.453400 128.126984,162.305923 120.737015,160.872650 
	C120.171921,160.763046 119.501205,161.198013 118.663185,161.259079 
	C118.446785,161.138306 117.983360,160.967026 117.991966,160.983536 
	C118.000572,161.000046 118.030968,161.021530 117.984848,160.848450 
	C117.938728,160.675369 117.816940,160.338455 117.819901,159.930847 
	C117.828712,159.251556 117.834557,158.979858 117.881233,158.356750 
	C118.389275,156.968323 119.116631,155.967056 119.265144,154.886261 
	C119.512367,153.087234 119.388458,151.237244 119.420837,149.408722 
	C117.932487,150.728104 116.437866,152.040558 114.962196,153.373993 
	C114.727989,153.585617 114.579094,153.891678 114.039864,154.116913 
	C113.455086,154.054688 113.221191,154.029633 112.987289,154.004578 
M176.362854,179.822296 
	C181.112823,175.849243 175.625717,172.471039 175.513901,168.532013 
	C173.464371,171.533615 171.719788,174.660477 171.294754,177.957443 
	C170.910889,180.935120 172.706650,182.624481 176.362854,179.822296 
M130.159470,146.170914 
	C130.680923,146.553131 131.640900,147.292603 131.661774,147.266983 
	C134.873184,143.325272 138.016830,139.328369 141.163330,135.333771 
	C140.365067,134.762955 139.566803,134.192123 138.768555,133.621307 
	C135.914093,137.577164 133.059647,141.533035 130.159470,146.170914 
M217.587585,137.133652 
	C215.324814,140.197128 213.062042,143.260620 210.304932,146.993378 
	C216.088669,145.980530 220.292038,141.043411 221.152756,134.936264 
	C219.933289,135.619858 219.013016,136.135727 217.587585,137.133652 
z"/>
<path fill="#F3B41C" opacity="1.000000" stroke="none" 
	d="
M212.248657,125.405457 
	C205.563248,132.805740 199.009079,139.917770 192.501511,147.072205 
	C191.559189,148.108200 191.086807,149.829742 189.970779,150.400040 
	C186.935837,151.950958 183.543579,154.296555 180.535645,153.984894 
	C177.547211,153.675232 174.567307,144.403198 175.445999,140.901138 
	C175.885284,139.150360 176.504608,137.394196 177.352234,135.805740 
	C180.091766,130.671753 180.175674,130.857422 184.750305,134.521896 
	C186.079727,135.586838 188.513779,135.272827 190.441452,135.590958 
	C190.088058,133.809631 190.332565,131.481964 189.284698,130.335220 
	C182.229950,122.614731 166.418076,124.447922 161.867844,133.622238 
	C160.472290,136.435974 160.147873,140.002457 160.128799,143.228928 
	C160.094498,149.030441 155.201508,158.425186 149.086761,162.242065 
	C149.470093,156.198257 149.885574,150.682892 150.150131,145.160278 
	C150.375778,140.449554 151.419678,135.520477 147.278961,131.342651 
	C161.081238,116.225403 174.905258,101.448647 188.781204,86.720825 
	C191.849625,83.464035 195.101669,80.380264 199.049469,77.128517 
	C206.116745,77.023369 212.404205,76.949501 218.690598,77.001762 
	C231.086761,77.104813 243.482330,77.277779 255.878143,77.421829 
	C255.583893,78.131538 255.462952,79.004829 254.970047,79.527031 
	C242.936310,92.275833 230.845871,104.971138 218.812042,117.719864 
	C216.571060,120.093964 214.528839,122.655693 212.248657,125.405457 
z"/>
<path fill="#F3B41C" opacity="1.000000" stroke="none" 
	d="
M361.114105,146.091888 
	C357.774689,149.841766 354.435272,153.591644 350.598083,157.268829 
	C349.939758,157.003723 349.779205,156.811279 349.699585,156.282196 
	C344.933624,151.442261 339.803040,153.520813 335.328766,156.096680 
	C331.207855,158.469086 327.888977,158.910446 324.420319,155.521149 
	C330.431793,150.184235 336.270813,144.534149 338.359741,136.268219 
	C339.794281,130.591797 339.913452,125.007988 335.187592,120.550194 
	C333.808594,119.249428 332.149384,118.245758 330.618591,117.105911 
	C341.243530,105.748688 351.868469,94.391472 362.986420,82.678352 
	C363.654633,81.819908 363.829803,81.317368 364.004974,80.814819 
	C363.977020,80.489166 364.104248,80.244057 364.935913,79.955719 
	C366.001740,79.142242 366.518341,78.452530 367.034943,77.762817 
	C367.002502,77.448235 367.125519,77.216019 368.092590,77.036606 
	C385.589539,77.000931 402.398376,76.938766 419.205566,77.076561 
	C420.862854,77.090149 422.510101,78.328583 424.161987,78.998505 
	C415.657867,87.958244 407.028748,96.803558 398.688446,105.913261 
	C391.782288,113.456497 385.237762,121.330139 378.469635,129.001450 
	C377.753357,129.813354 376.610138,130.248627 374.933289,130.990738 
	C369.785004,130.832993 365.298187,129.914932 360.968201,130.399094 
	C354.312561,131.143326 354.804474,131.614853 355.215912,138.362244 
	C355.486481,142.799103 358.375549,144.126770 361.114105,146.091888 
z"/>
<path fill="#F4B41B" opacity="1.000000" stroke="none" 
	d="
M86.039017,78.120293 
	C85.045357,79.575020 84.210960,81.175797 83.032463,82.461029 
	C74.707169,91.540337 66.316940,100.560158 57.931187,109.583878 
	C56.778515,110.824226 55.536156,111.981224 53.745697,113.597992 
	C47.200890,113.773857 41.227074,113.125259 35.295872,113.399200 
	C29.618252,113.661423 23.984901,114.882187 18.332094,115.681648 
	C18.330877,116.389778 18.329660,117.097900 18.328444,117.806023 
	C21.519291,118.811508 24.710138,119.816994 28.911463,121.140892 
	C27.246204,129.304825 25.547520,137.632614 23.848835,145.960419 
	C18.128584,151.913589 12.408333,157.866760 6.134173,163.605591 
	C5.383216,161.428284 5.019210,159.465714 5.014987,157.502335 
	C4.973553,138.239319 5.015793,118.976089 4.956792,99.713165 
	C4.950877,97.781792 4.434098,95.851974 4.154409,93.921440 
	C4.137557,88.091507 8.284870,84.490433 11.962815,81.164436 
	C14.662964,78.722679 18.774227,77.841354 22.954432,76.470978 
	C25.467863,76.782265 27.283352,76.975853 29.099102,76.978302 
	C46.205536,77.001312 63.312187,76.956894 80.418236,77.041054 
	C82.293556,77.050293 84.165504,77.744034 86.039017,78.120293 
z"/>
<path fill="#F3B41C" opacity="1.000000" stroke="none" 
	d="
M470.724121,147.904648 
	C471.067535,147.518402 471.410980,147.132141 472.134766,146.304947 
	C474.671204,145.916031 476.827301,145.968063 479.041107,146.095657 
	C479.098785,146.171204 479.247406,145.898972 479.247406,145.898972 
	C479.247406,145.898972 478.952240,146.095718 479.168091,145.700180 
	C479.192352,143.528458 479.000793,141.752274 478.809265,139.976089 
	C482.614716,135.736389 486.420197,131.496689 490.794556,127.445541 
	C491.573486,129.590164 491.960876,131.545761 491.965881,133.502365 
	C492.012543,151.749847 491.968140,169.997604 492.030762,188.244995 
	C492.037415,190.180374 492.560089,192.113983 492.843353,194.048416 
	C493.617096,203.961060 483.431793,214.352448 472.048035,214.702728 
	C469.316681,214.286713 467.343903,214.029007 465.370605,214.024948 
	C449.290710,213.991943 433.210388,214.052139 417.131104,213.948975 
	C415.098206,213.935959 413.070343,213.141403 411.040131,212.708939 
	C411.330566,211.987000 411.442535,211.097763 411.938568,210.568588 
	C417.934998,204.171692 424.039520,197.875809 430.013428,191.458252 
	C437.539764,183.372940 444.971497,175.199600 453.080139,167.214844 
	C454.159393,167.842484 454.579224,168.709183 455.049255,168.737350 
	C460.861145,169.085602 464.002594,172.847137 466.605896,177.435516 
	C466.948120,178.038742 467.830750,178.683731 468.482849,178.705093 
	C472.183014,178.826385 475.889191,178.763809 480.324890,178.763809 
	C477.665680,173.211792 475.455109,168.596436 472.704803,162.854263 
	C478.583099,162.854263 482.876251,162.854263 488.410645,162.854263 
	C481.600250,157.943726 479.524597,149.536484 471.044708,148.790619 
	C470.912872,148.779037 470.829895,148.212296 470.724121,147.904648 
z"/>
<path fill="#F3B41B" opacity="1.000000" stroke="none" 
	d="
M118.879585,161.379852 
	C119.501205,161.198013 120.171921,160.763046 120.737015,160.872650 
	C128.126984,162.305923 133.324783,159.453400 137.038483,151.131943 
	C137.513245,154.489746 137.817108,156.185120 137.982971,157.893906 
	C138.570114,163.942734 141.443939,167.623276 146.451157,168.893860 
	C151.818802,170.255890 154.940994,167.412292 157.363800,163.231674 
	C159.432541,159.661987 161.420074,156.045212 163.790039,151.833450 
	C166.247208,155.088577 168.466476,158.028534 170.916656,161.274384 
	C165.962067,166.686264 159.034317,171.261963 160.837524,180.654175 
	C150.415314,191.940628 140.070297,202.864639 128.929993,213.911835 
	C111.557587,214.024750 94.979713,214.082275 78.404305,213.907227 
	C76.597107,213.888153 74.804070,212.528397 73.004471,211.790497 
	C75.869148,208.484467 78.733818,205.178436 82.199341,201.475067 
	C93.662270,202.475937 101.310089,195.563202 102.608818,185.007553 
	C102.900795,182.634430 103.659462,180.318726 104.490654,177.818069 
	C106.306374,175.804749 107.806892,173.926117 109.369316,172.100479 
	C111.986656,169.042236 114.643478,166.017792 117.468643,162.948578 
	C117.898193,162.776138 118.007027,162.564453 118.166840,162.163467 
	C118.649811,161.918182 118.825150,161.696823 118.879585,161.379852 
z"/>
<path fill="#F3B41C" opacity="1.000000" stroke="none" 
	d="
M241.971054,211.864594 
	C246.503998,206.881134 250.969009,201.833740 255.585632,196.929047 
	C262.718170,189.351425 270.032288,181.943954 277.121429,174.326599 
	C282.593231,168.447083 287.780426,162.303009 293.234192,156.406097 
	C294.272125,155.283813 295.965088,154.767365 297.866913,154.249786 
	C298.986664,159.146652 299.384338,163.805725 300.262482,168.372406 
	C301.166473,173.073502 303.440338,176.904465 308.911957,177.148407 
	C312.307068,177.299744 315.796936,176.544159 319.109772,177.059845 
	C325.521942,178.057983 331.635864,174.841843 332.727234,168.374405 
	C333.461670,164.022217 335.894043,162.020905 339.399048,160.567017 
	C342.771271,159.168198 346.209473,157.928467 349.618683,156.618851 
	C349.779205,156.811279 349.939758,157.003723 350.338196,157.487274 
	C340.684784,168.686554 330.837311,179.634857 320.885895,190.487823 
	C314.916718,196.997757 308.785156,203.358826 302.200897,210.068451 
	C301.446686,210.595520 301.218170,210.840942 300.989655,211.086365 
	C300.989655,211.086349 301.025757,211.007614 300.718933,211.060699 
	C299.622101,212.113800 298.832092,213.113800 298.042114,214.113800 
	C298.042114,214.113800 298.036438,214.044144 297.595581,214.029892 
	C280.587830,214.012299 264.020294,214.075562 247.455017,213.911621 
	C245.620453,213.893478 243.798737,212.578262 241.971054,211.864594 
z"/>
<path fill="#183F4A" opacity="1.000000" stroke="none" 
	d="
M104.203278,177.976578 
	C103.659462,180.318726 102.900795,182.634430 102.608818,185.007553 
	C101.310089,195.563202 93.662270,202.475937 82.358414,201.196808 
	C80.324600,200.845673 78.721962,200.408325 77.142258,199.899780 
	C68.583061,197.144318 65.836510,188.764664 71.794945,181.889145 
	C74.656982,178.586609 78.726257,176.203445 82.545738,173.895264 
	C85.962608,171.830414 88.846924,169.938065 88.067009,165.249756 
	C87.720970,163.169617 88.008621,160.984055 88.008621,157.514633 
	C84.495354,160.259598 81.906372,162.298752 79.300125,164.315613 
	C71.748947,170.159180 53.944664,166.353546 49.814953,157.759232 
	C48.821651,155.692078 48.828526,152.898941 49.102703,150.523636 
	C49.553280,146.620071 50.136097,142.615387 51.481224,138.953873 
	C55.136055,129.005157 69.277962,125.419235 77.582115,132.082428 
	C82.695297,136.185211 82.069954,143.770035 76.249084,147.030746 
	C74.529167,147.994217 72.604767,148.669296 70.698349,149.209106 
	C64.560371,150.947052 63.720001,152.577087 66.140572,158.727585 
	C66.545738,159.757095 67.214012,160.683029 68.404060,162.802780 
	C75.214920,157.955978 81.687515,153.349869 88.391747,148.578934 
	C88.745438,149.731537 89.154068,151.063171 89.953056,153.666931 
	C92.276108,150.283478 94.077316,147.660065 96.688782,143.856552 
	C93.303741,144.297577 91.427483,144.542023 89.219269,144.829727 
	C88.697083,141.139374 88.155350,137.310883 87.610054,133.457230 
	C96.879906,132.537186 101.869644,136.274124 102.953552,144.443222 
	C103.366829,147.557892 103.781639,150.682709 103.953537,153.816193 
	C104.124382,156.930405 103.990944,160.061325 103.990944,163.184906 
	C104.507080,163.472275 105.023216,163.759628 105.539352,164.046997 
	C107.992989,160.938080 110.446617,157.829147 112.943771,154.362396 
	C113.221191,154.029633 113.455086,154.054688 114.101234,154.404831 
	C115.622467,156.056000 116.731438,157.382095 117.840408,158.708176 
	C117.834557,158.979858 117.828712,159.251556 117.677490,160.001205 
	C117.532120,160.479172 117.594223,160.904510 117.594223,160.904510 
	C117.594223,160.904510 118.030968,161.021530 118.030968,161.021530 
	C118.030968,161.021530 118.000572,161.000046 117.936264,161.312408 
	C117.908005,161.844193 117.944061,162.063599 117.980110,162.282990 
	C118.007027,162.564453 117.898193,162.776138 117.094772,162.914017 
	C113.496490,165.344971 110.675369,168.149048 107.356659,170.111786 
	C103.991623,172.101913 103.600121,174.695847 104.203278,177.976578 
z"/>
<path fill="#1A4048" opacity="1.000000" stroke="none" 
	d="
M349.699585,156.282196 
	C346.209473,157.928467 342.771271,159.168198 339.399048,160.567017 
	C335.894043,162.020905 333.461670,164.022217 332.727234,168.374405 
	C331.635864,174.841843 325.521942,178.057983 319.109772,177.059845 
	C315.796936,176.544159 312.307068,177.299744 308.911957,177.148407 
	C303.440338,176.904465 301.166473,173.073502 300.262482,168.372406 
	C299.384338,163.805725 298.986664,159.146652 298.220459,154.123047 
	C298.703033,141.548737 299.250946,129.372818 300.132629,117.221115 
	C300.216339,116.067551 302.362488,114.179596 303.599426,114.139915 
	C310.626312,113.914543 313.913666,116.749619 315.358307,123.924248 
	C319.428162,119.727097 324.157715,117.311760 330.276703,117.253609 
	C332.149384,118.245758 333.808594,119.249428 335.187592,120.550194 
	C339.913452,125.007988 339.794281,130.591797 338.359741,136.268219 
	C336.270813,144.534149 330.431793,150.184235 324.420319,155.521149 
	C327.888977,158.910446 331.207855,158.469086 335.328766,156.096680 
	C339.803040,153.520813 344.933624,151.442261 349.699585,156.282196 
M316.290741,146.550537 
	C316.290741,147.915100 316.290741,149.279678 316.290741,152.047104 
	C323.807190,142.736984 329.178375,134.160645 328.281403,122.659576 
	C326.000000,123.988930 323.480469,125.432381 322.602966,127.554749 
	C320.160156,133.462830 318.399017,139.652740 316.290741,146.550537 
M315.947937,167.255920 
	C316.025696,168.677750 316.103485,170.099564 316.181274,171.521393 
	C316.608459,171.769135 317.035645,172.016861 317.462830,172.264603 
	C318.902710,170.175735 320.871094,168.255875 321.610779,165.943054 
	C322.175049,164.178696 321.362396,161.859222 320.747833,159.917908 
	C320.604614,159.465439 318.009521,159.148651 317.857025,159.445267 
	C316.980835,161.149414 316.470886,163.048019 315.906891,164.902008 
	C315.770447,165.350449 315.898621,165.879379 315.947937,167.255920 
z"/>
<path fill="#183F4A" opacity="1.000000" stroke="none" 
	d="
M24.163834,146.229828 
	C25.547520,137.632614 27.246204,129.304825 28.911463,121.140892 
	C24.710138,119.816994 21.519291,118.811508 18.328444,117.806023 
	C18.329660,117.097900 18.330877,116.389778 18.332094,115.681648 
	C23.984901,114.882187 29.618252,113.661423 35.295872,113.399200 
	C41.227074,113.125259 47.200890,113.773857 53.583031,113.897049 
	C54.957191,115.251900 55.904396,116.728882 56.840851,118.189095 
	C56.346027,118.591873 56.108929,118.953331 55.873768,118.952072 
	C44.733276,118.892586 40.476727,122.997887 40.838890,134.667786 
	C41.211384,146.670746 40.273857,158.710297 40.103504,170.736588 
	C40.050724,174.462921 38.128418,175.194916 35.021797,175.059570 
	C27.883005,174.748520 25.210238,172.111465 25.008888,165.034271 
	C24.833111,158.855911 24.655584,152.677582 24.163834,146.229828 
z"/>
<path fill="#0A4650" opacity="1.000000" stroke="none" 
	d="
M361.466431,146.124268 
	C358.375549,144.126770 355.486481,142.799103 355.215912,138.362244 
	C354.804474,131.614853 354.312561,131.143326 360.968201,130.399094 
	C365.298187,129.914932 369.785004,130.832993 374.626831,131.169144 
	C376.845856,135.580307 378.719757,139.914536 380.403534,144.321442 
	C381.433258,147.016541 383.083405,147.974670 386.041626,148.062256 
	C391.253479,148.216583 396.446564,149.003754 401.863983,150.243195 
	C402.790192,157.307114 400.419006,161.759415 394.385406,164.358734 
	C392.914459,164.992432 391.967438,166.842148 390.779541,168.132751 
	C388.781006,171.322372 386.820557,174.536682 384.772980,177.694489 
	C382.823792,180.700439 376.976990,181.263870 371.300659,178.897552 
	C373.898224,171.087585 376.498535,163.269302 379.301453,154.841843 
	C374.161713,152.288483 367.990265,149.222565 361.466431,146.124268 
z"/>
<path fill="#0A4650" opacity="1.000000" stroke="none" 
	d="
M470.318359,147.882797 
	C470.829895,148.212296 470.912872,148.779037 471.044708,148.790619 
	C479.524597,149.536484 481.600250,157.943726 488.410645,162.854263 
	C482.876251,162.854263 478.583099,162.854263 472.704803,162.854263 
	C475.455109,168.596436 477.665680,173.211792 480.324890,178.763809 
	C475.889191,178.763809 472.183014,178.826385 468.482849,178.705093 
	C467.830750,178.683731 466.948120,178.038742 466.605896,177.435516 
	C464.002594,172.847137 460.861145,169.085602 455.049255,168.737350 
	C454.579224,168.709183 454.159393,167.842484 453.427063,167.133179 
	C453.734039,163.869797 454.480865,160.858963 454.892609,157.802963 
	C455.587250,152.647385 458.109009,149.764328 463.083038,148.908783 
	C465.352478,148.518417 467.635681,148.207748 470.318359,147.882797 
z"/>
<path fill="#8BCCB9" opacity="1.000000" stroke="none" 
	d="
M409.995361,148.269135 
	C405.897491,144.249771 408.398102,139.198013 408.096405,134.662857 
	C407.794617,130.125900 408.937164,125.509018 408.883209,120.933815 
	C408.846375,117.808975 409.771942,115.955536 412.721497,115.024239 
	C416.861084,113.717201 420.917572,112.094650 425.120697,111.057175 
	C428.631561,110.190575 430.204193,111.811378 430.070190,115.655937 
	C429.821045,122.805702 429.999725,129.970367 429.908844,137.305374 
	C428.348206,136.893677 426.404968,135.393631 425.489227,135.869781 
	C420.676605,138.372238 416.036377,141.246094 411.549866,144.304306 
	C410.581024,144.964722 410.490479,146.913696 409.995361,148.269135 
z"/>
<path fill="#6BBBAB" opacity="1.000000" stroke="none" 
	d="
M435.992157,112.708305 
	C435.992157,112.708305 435.949890,112.333839 436.199768,112.064224 
	C436.641968,111.621826 436.787415,111.415955 436.886017,111.177017 
	C442.144592,112.520973 447.462921,113.680977 452.614136,115.355255 
	C453.720154,115.714752 454.781219,117.885063 454.905945,119.305267 
	C455.482971,125.875648 455.722382,132.475708 455.732422,139.527527 
	C449.339630,138.361221 443.297211,136.732498 437.200989,134.630783 
	C436.805481,127.765587 436.463806,121.373383 436.122070,114.981186 
	C436.122070,114.981186 435.946045,114.659172 436.047974,114.080078 
	C436.097351,113.236755 436.044769,112.972534 435.992157,112.708305 
z"/>
<path fill="#459D9D" opacity="1.000000" stroke="none" 
	d="
M409.981873,148.619141 
	C410.490479,146.913696 410.581024,144.964722 411.549866,144.304306 
	C416.036377,141.246094 420.676605,138.372238 425.489227,135.869781 
	C426.404968,135.393631 428.348206,136.893677 430.035004,137.761627 
	C430.874847,145.081345 431.497070,152.121338 431.842834,159.529877 
	C426.162781,157.528870 420.759186,155.159317 414.626984,152.470261 
	C415.290283,155.265396 415.629333,156.694077 415.968353,158.122742 
	C413.968353,155.071533 411.968353,152.020325 409.981873,148.619141 
z"/>
<path fill="#399698" opacity="1.000000" stroke="none" 
	d="
M383.177277,140.528412 
	C387.867676,134.688339 392.251434,129.056335 397.082123,123.838028 
	C398.717651,122.071281 401.483246,121.350662 404.535522,119.723915 
	C404.535522,127.378258 404.727753,134.224319 404.339508,141.037308 
	C404.277405,142.126938 401.627197,143.904022 400.153534,143.924484 
	C395.407074,143.990433 390.638702,143.493195 385.909119,142.949219 
	C384.889435,142.831924 383.996735,141.610947 383.177277,140.528412 
z"/>
<path fill="#1D888A" opacity="1.000000" stroke="none" 
	d="
M478.533752,139.780487 
	C479.000793,141.752274 479.192352,143.528458 479.174744,145.679657 
	C478.965576,146.054688 478.983429,146.020111 478.983429,146.020111 
	C476.827301,145.968063 474.671204,145.916031 472.193970,146.052155 
	C469.995300,145.856415 468.124695,145.192886 466.238770,145.145859 
	C462.102936,145.042755 459.758453,143.666061 459.955566,138.996674 
	C460.204193,133.107162 460.015564,127.199196 460.015564,120.335014 
	C469.359100,124.648621 474.388306,131.557465 478.533752,139.780487 
z"/>
<path fill="#0F7C81" opacity="1.000000" stroke="none" 
	d="
M456.093079,145.137375 
	C453.956024,150.708832 451.820801,156.280960 449.678619,161.850464 
	C449.502838,162.307510 449.201752,162.728333 449.092834,163.197113 
	C448.595245,165.339142 448.653778,168.986252 447.579865,169.351624 
	C444.748749,170.314896 441.423248,170.024872 438.318298,169.838608 
	C437.571167,169.793777 436.371857,168.249161 436.312164,167.333557 
	C436.040375,163.163086 436.100922,158.970963 436.272034,154.356781 
	C436.502106,153.926926 436.840546,153.879883 437.207520,153.850616 
	C439.228912,153.134888 440.917480,152.519821 442.531219,151.748276 
	C447.068329,149.579117 451.574646,147.345551 456.093079,145.137375 
z"/>
<path fill="#409A9A" opacity="1.000000" stroke="none" 
	d="
M456.353882,144.997009 
	C451.574646,147.345551 447.068329,149.579117 442.531219,151.748276 
	C440.917480,152.519821 439.228912,153.134888 437.236023,153.391235 
	C437.016602,147.008652 437.135681,141.056213 437.254761,135.103775 
	C443.297211,136.732498 449.339630,138.361221 455.780396,139.963608 
	C456.178741,139.937271 456.091034,139.983521 456.105042,140.243942 
	C456.464783,140.994003 456.810547,141.483643 457.156342,141.973267 
	C456.975800,142.934387 456.795258,143.895523 456.353882,144.997009 
z"/>
<path fill="#0F7C81" opacity="1.000000" stroke="none" 
	d="
M415.961182,158.536270 
	C415.629333,156.694077 415.290283,155.265396 414.626984,152.470261 
	C420.759186,155.159317 426.162781,157.528870 431.936340,159.986908 
	C432.884033,162.418381 433.708557,164.740250 433.911926,167.115311 
	C433.987946,168.003296 432.680847,169.076813 431.864960,169.932892 
	C431.622498,170.187302 430.905090,170.009689 430.406250,169.995911 
	C426.424927,169.885880 421.577606,171.088928 418.740112,169.228699 
	C416.519562,167.772903 416.790253,162.517181 415.961182,158.536270 
z"/>
<path fill="#0F7C81" opacity="1.000000" stroke="none" 
	d="
M390.855835,168.328644 
	C391.967438,166.842148 392.914459,164.992432 394.385406,164.358734 
	C400.419006,161.759415 402.790192,157.307114 402.038300,150.532837 
	C408.252594,152.295471 410.696320,155.791885 410.667480,163.567337 
	C410.517273,165.659882 410.688446,167.156693 410.887848,168.900452 
	C404.094849,168.900452 397.860962,168.900452 391.627106,168.900452 
	C391.305115,168.942230 391.073486,168.816910 390.855835,168.328644 
z"/>
<path fill="#1A414B" opacity="1.000000" stroke="none" 
	d="
M246.892822,119.020699 
	C249.368225,116.803131 258.839508,116.899208 259.441345,119.257317 
	C260.306976,122.648964 260.509918,127.061707 258.990234,130.002151 
	C256.924988,133.998245 252.663925,130.828949 249.506607,130.285172 
	C248.148727,130.051331 246.478394,127.796776 246.172623,126.222771 
	C245.754730,124.071533 246.503189,121.693726 246.892822,119.020699 
z"/>
<path fill="#183F4A" opacity="1.000000" stroke="none" 
	d="
M96.155998,130.525269 
	C90.030144,129.802902 87.447449,127.207764 88.497696,122.912216 
	C89.109650,120.409340 89.311493,117.449120 93.155159,117.670967 
	C97.601189,117.927582 101.692619,121.295570 101.924026,125.062500 
	C102.158508,128.879837 100.036552,130.446075 96.155998,130.525269 
z"/>
<path fill="#F6C03F" opacity="1.000000" stroke="none" 
	d="
M4.074870,94.325577 
	C4.434098,95.851974 4.950877,97.781792 4.956792,99.713165 
	C5.015793,118.976089 4.973553,138.239319 5.014987,157.502335 
	C5.019210,159.465714 5.383216,161.428284 5.823339,163.735107 
	C5.670459,164.592316 5.274504,165.105652 4.270816,166.406860 
	C4.152009,164.313385 4.013499,162.999924 4.012535,161.686356 
	C3.998520,142.581482 4.003263,123.476616 4.002572,104.371742 
	C4.002456,101.157730 3.997858,97.943718 4.074870,94.325577 
z"/>
<path fill="#F6C03F" opacity="1.000000" stroke="none" 
	d="
M492.918457,193.579575 
	C492.560089,192.113983 492.037415,190.180374 492.030762,188.244995 
	C491.968140,169.997604 492.012543,151.749847 491.965881,133.502365 
	C491.960876,131.545761 491.573486,129.590164 491.094238,127.313919 
	C491.307007,126.404732 491.789032,125.815727 492.993530,124.343849 
	C492.993530,147.948883 492.993530,170.529800 492.918457,193.579575 
z"/>
<path fill="#F6C03F" opacity="1.000000" stroke="none" 
	d="
M410.713013,212.881302 
	C413.070343,213.141403 415.098206,213.935959 417.131104,213.948975 
	C433.210388,214.052139 449.290710,213.991943 465.370605,214.024948 
	C467.343903,214.029007 469.316681,214.286713 471.647827,214.633102 
	C455.013458,214.892563 438.020966,214.947739 421.028442,214.997299 
	C417.645111,215.007172 414.260712,215.026260 410.881195,214.911133 
	C410.695221,214.904785 410.550079,213.700394 410.713013,212.881302 
z"/>
<path fill="#F9D682" opacity="1.000000" stroke="none" 
	d="
M86.414474,77.934464 
	C84.165504,77.744034 82.293556,77.050293 80.418236,77.041054 
	C63.312187,76.956894 46.205536,77.001312 29.099102,76.978302 
	C27.283352,76.975853 25.467863,76.782265 23.323620,76.420532 
	C43.430305,76.109756 63.865665,76.035202 84.300797,76.075958 
	C85.131607,76.077614 85.960266,77.166367 86.414474,77.934464 
z"/>
<path fill="#F6C03F" opacity="1.000000" stroke="none" 
	d="
M72.692368,211.951782 
	C74.804070,212.528397 76.597107,213.888153 78.404305,213.907227 
	C94.979713,214.082275 111.557587,214.024750 128.606735,214.051636 
	C127.554276,214.378494 126.031052,214.951004 124.505157,214.958206 
	C110.007645,215.026566 95.509628,214.980118 81.011887,215.016968 
	C78.497314,215.023346 75.974739,215.457809 73.471428,215.346024 
	C70.820442,215.227631 70.828552,215.045959 72.692368,211.951782 
z"/>
<path fill="#F9D682" opacity="1.000000" stroke="none" 
	d="
M424.468414,78.847450 
	C422.510101,78.328583 420.862854,77.090149 419.205566,77.076561 
	C402.398376,76.938766 385.589539,77.000931 368.298157,77.005798 
	C369.175507,76.669968 370.534729,76.049782 371.896454,76.044266 
	C388.395050,75.977364 404.894379,75.956627 421.392273,76.084671 
	C422.728210,76.095032 426.378052,74.371719 424.468414,78.847450 
z"/>
<path fill="#F6C03F" opacity="1.000000" stroke="none" 
	d="
M241.644806,212.017349 
	C243.798737,212.578262 245.620453,213.893478 247.455017,213.911621 
	C264.020294,214.075562 280.587830,214.012299 297.630371,214.032928 
	C297.418213,214.364304 296.731140,214.950851 296.042450,214.952698 
	C277.550385,215.002594 259.058167,214.992447 240.340149,214.992447 
	C240.708527,213.929840 241.013550,213.049973 241.644806,212.017349 
z"/>
<path fill="#F9D682" opacity="1.000000" stroke="none" 
	d="
M256.216003,77.169952 
	C243.482330,77.277779 231.086761,77.104813 218.690598,77.001762 
	C212.404205,76.949501 206.116745,77.023369 199.355072,77.000092 
	C199.882324,76.640388 200.883347,76.045410 201.886322,76.042160 
	C219.364609,75.985435 236.843140,75.989967 254.321472,76.040070 
	C255.066452,76.042198 255.809784,76.612473 256.216003,77.169952 
z"/>
<path fill="#BADEDB" opacity="1.000000" stroke="none" 
	d="
M437.200989,134.630783 
	C437.135681,141.056213 437.016602,147.008652 436.869019,153.420486 
	C436.840546,153.879883 436.502106,153.926926 436.331421,153.929489 
	C436.120087,141.262833 436.079407,128.593613 436.080414,115.452789 
	C436.463806,121.373383 436.805481,127.765587 437.200989,134.630783 
z"/>
<path fill="#BADEDB" opacity="1.000000" stroke="none" 
	d="
M391.869110,169.299011 
	C397.860962,168.900452 404.094849,168.900452 410.887848,168.900452 
	C410.688446,167.156693 410.517273,165.659882 410.659973,163.965637 
	C411.458435,165.685654 411.943054,167.603119 412.472412,169.697556 
	C405.255249,169.697556 398.683197,169.697556 391.869110,169.299011 
z"/>
<path fill="#F6C03F" opacity="1.000000" stroke="none" 
	d="
M298.336395,213.993774 
	C298.832092,213.113800 299.622101,212.113800 300.758148,211.079071 
	C300.279724,211.987457 299.455200,212.930603 298.336395,213.993774 
z"/>
<path fill="#F9D682" opacity="1.000000" stroke="none" 
	d="
M366.751587,77.915909 
	C366.518341,78.452530 366.001740,79.142242 365.149963,79.918480 
	C365.365936,79.359680 365.917084,78.714340 366.751587,77.915909 
z"/>
<path fill="#6BBBAB" opacity="1.000000" stroke="none" 
	d="
M457.083740,141.662903 
	C456.810547,141.483643 456.464783,140.994003 456.079163,140.201660 
	C456.363251,140.383484 456.687195,140.868011 457.083740,141.662903 
z"/>
<path fill="#F9D682" opacity="1.000000" stroke="none" 
	d="
M363.743103,80.950218 
	C363.829803,81.317368 363.654633,81.819908 363.291809,82.504333 
	C363.229889,82.152687 363.355560,81.619148 363.743103,80.950218 
z"/>
<path fill="#F6C03F" opacity="1.000000" stroke="none" 
	d="
M301.253387,211.017487 
	C301.218170,210.840942 301.446686,210.595520 301.880737,210.205414 
	C301.896576,210.356659 301.706848,210.652618 301.253387,211.017487 
z"/>
<path fill="#BADEDB" opacity="1.000000" stroke="none" 
	d="
M435.698853,112.849899 
	C436.044769,112.972534 436.097351,113.236755 436.070496,113.897980 
	C435.795929,113.860489 435.600739,113.425987 435.698853,112.849899 
z"/>
<path fill="#BADEDB" opacity="1.000000" stroke="none" 
	d="
M436.645447,111.166443 
	C436.787415,111.415955 436.641968,111.621826 436.289429,111.898499 
	C435.982269,111.642303 436.074158,111.360138 436.645447,111.166443 
z"/>
<path fill="#000000" opacity="1.000000" stroke="none" 
	d="
M176.099487,180.056335 
	C172.706650,182.624481 170.910889,180.935120 171.294754,177.957443 
	C171.719788,174.660477 173.464371,171.533615 175.513901,168.532013 
	C175.625717,172.471039 181.112823,175.849243 176.099487,180.056335 
z"/>
<path fill="#000000" opacity="1.000000" stroke="none" 
	d="
M130.182327,145.829895 
	C133.059647,141.533035 135.914093,137.577164 138.768555,133.621307 
	C139.566803,134.192123 140.365067,134.762955 141.163330,135.333771 
	C138.016830,139.328369 134.873184,143.325272 131.661774,147.266983 
	C131.640900,147.292603 130.680923,146.553131 130.182327,145.829895 
z"/>
<path fill="#000000" opacity="1.000000" stroke="none" 
	d="
M217.840179,136.892624 
	C219.013016,136.135727 219.933289,135.619858 221.152756,134.936264 
	C220.292038,141.043411 216.088669,145.980530 210.304932,146.993378 
	C213.062042,143.260620 215.324814,140.197128 217.840179,136.892624 
z"/>
<path fill="#000000" opacity="1.000000" stroke="none" 
	d="
M117.881233,158.356750 
	C116.731438,157.382095 115.622467,156.056000 114.452126,154.442001 
	C114.579094,153.891678 114.727989,153.585617 114.962196,153.373993 
	C116.437866,152.040558 117.932487,150.728104 119.420837,149.408722 
	C119.388458,151.237244 119.512367,153.087234 119.265144,154.886261 
	C119.116631,155.967056 118.389275,156.968323 117.881233,158.356750 
z"/>
<path fill="#000000" opacity="1.000000" stroke="none" 
	d="
M117.984848,160.848450 
	C118.030968,161.021530 117.594223,160.904510 117.594223,160.904510 
	C117.594223,160.904510 117.532120,160.479172 117.674530,160.408813 
	C117.816940,160.338455 117.938728,160.675369 117.984848,160.848450 
z"/>
<path fill="#000000" opacity="1.000000" stroke="none" 
	d="
M118.166840,162.163467 
	C117.944061,162.063599 117.908005,161.844193 117.927658,161.295898 
	C117.983360,160.967026 118.446785,161.138306 118.663185,161.259079 
	C118.825150,161.696823 118.649811,161.918182 118.166840,162.163467 
z"/>
<path fill="#1D888A" opacity="1.000000" stroke="none" 
	d="
M478.958923,146.075195 
	C478.952240,146.095718 479.247406,145.898972 479.247406,145.898972 
	C479.247406,145.898972 479.098785,146.171204 479.041107,146.095657 
	C478.983429,146.020111 478.965576,146.054688 478.958923,146.075195 
z"/>
<path fill="#000000" opacity="1.000000" stroke="none" 
	d="
M104.490662,177.818069 
	C103.600121,174.695847 103.991623,172.101913 107.356659,170.111786 
	C110.675369,168.149048 113.496490,165.344971 116.909805,162.944580 
	C114.643478,166.017792 111.986656,169.042236 109.369316,172.100479 
	C107.806892,173.926117 106.306374,175.804749 104.490662,177.818069 
z"/>
<path fill="#F3B41B" opacity="1.000000" stroke="none" 
	d="
M316.329712,146.140961 
	C318.399017,139.652740 320.160156,133.462830 322.602966,127.554749 
	C323.480469,125.432381 326.000000,123.988930 328.281403,122.659576 
	C329.178375,134.160645 323.807190,142.736984 316.290741,152.047104 
	C316.290741,149.279678 316.290741,147.915100 316.329712,146.140961 
z"/>
<path fill="#F3B41B" opacity="1.000000" stroke="none" 
	d="
M315.926514,166.813599 
	C315.898621,165.879379 315.770447,165.350449 315.906891,164.902008 
	C316.470886,163.048019 316.980835,161.149414 317.857025,159.445267 
	C318.009521,159.148651 320.604614,159.465439 320.747833,159.917908 
	C321.362396,161.859222 322.175049,164.178696 321.610779,165.943054 
	C320.871094,168.255875 318.902710,170.175735 317.462830,172.264603 
	C317.035645,172.016861 316.608459,171.769135 316.181274,171.521393 
	C316.103485,170.099564 316.025696,168.677750 315.926514,166.813599 
z"/>
</svg>